<svg width="256" height="88" viewBox="0 0 256 88" fill="none" xmlns="http://www.w3.org/2000/svg">
<path d="M118.112 7.40501C117.654 7.37274 117.202 7.52281 116.854 7.82251C116.506 8.12221 116.291 8.54726 116.255 9.00501V81.439C116.321 81.8847 116.544 82.2919 116.885 82.5863C117.226 82.8807 117.662 83.0427 118.112 83.0427C118.562 83.0427 118.998 82.8807 119.339 82.5863C119.68 82.2919 119.903 81.8847 119.969 81.439V9.00501C119.933 8.54716 119.718 8.12196 119.37 7.8222C119.022 7.52244 118.57 7.37247 118.112 7.40501Z" fill="#010101"/>
<path d="M45.312 87.855C20.26 87.855 0 68.187 0 43.915C0 19.643 20.255 0 45.312 0C70.369 0 90.695 19.644 90.695 43.915C90.695 68.186 70.364 87.855 45.312 87.855Z" fill="#C62828"/>
<path d="M70.498 14.792C69.3281 14.8307 68.1956 15.213 67.2416 15.8912C66.2876 16.5694 65.5544 17.5136 65.1336 18.6058C64.7127 19.698 64.6228 20.89 64.875 22.033C65.1272 23.176 65.7105 24.2194 66.5519 25.0331C67.3933 25.8468 68.4557 26.3947 69.6065 26.6085C70.7573 26.8223 71.9456 26.6924 73.0231 26.2352C74.1006 25.778 75.0197 25.0136 75.6655 24.0374C76.3114 23.0612 76.6556 21.9165 76.655 20.746C76.643 19.9504 76.4741 19.1649 76.158 18.4347C75.8418 17.7045 75.3846 17.0439 74.8126 16.4907C74.2406 15.9376 73.565 15.5028 72.8246 15.2113C72.0842 14.9198 71.2936 14.7773 70.498 14.792ZM70.498 23.109C70.0338 23.0939 69.5843 22.9424 69.2056 22.6735C68.8269 22.4045 68.5358 22.03 68.3686 21.5967C68.2014 21.1634 68.1655 20.6904 68.2653 20.2368C68.3652 19.7832 68.5964 19.3691 68.9301 19.046C69.2638 18.723 69.6852 18.5053 70.1418 18.4202C70.5984 18.3352 71.07 18.3864 71.4976 18.5676C71.9253 18.7488 72.2901 19.0519 72.5466 19.4391C72.8032 19.8264 72.94 20.2805 72.94 20.745C72.9348 21.0603 72.8675 21.3716 72.7419 21.6609C72.6163 21.9502 72.435 22.212 72.2082 22.4311C71.9814 22.6503 71.7136 22.8227 71.4202 22.9383C71.1267 23.0539 70.8134 23.1105 70.498 23.105V23.109ZM34.648 30.038C34.6079 28.7992 34.0876 27.6246 33.1972 26.7626C32.3067 25.9005 31.1159 25.4185 29.8765 25.4185C28.6371 25.4185 27.4463 25.9005 26.5558 26.7626C25.6654 27.6246 25.1451 28.7992 25.105 30.038C25.1 30.1219 25.1 30.2061 25.105 30.29V59.744C25.1 59.8299 25.1 59.9161 25.105 60.002C25.1451 61.2407 25.6654 62.4153 26.5558 63.2774C27.4463 64.1395 28.6371 64.6215 29.8765 64.6215C31.1159 64.6215 32.3067 64.1395 33.1972 63.2774C34.0876 62.4153 34.6079 61.2407 34.648 60.002C34.653 59.9161 34.653 59.8299 34.648 59.744V30.29C34.653 30.2061 34.653 30.1219 34.648 30.038ZM49.013 30.038C48.9729 28.7985 48.4523 27.6231 47.5613 26.7605C46.6703 25.8978 45.4787 25.4155 44.2385 25.4155C42.9983 25.4155 41.8068 25.8978 40.9157 26.7605C40.0247 27.6231 39.5041 28.7985 39.464 30.038C39.4595 30.1219 39.4595 30.206 39.464 30.29V59.744C39.4595 59.8299 39.4595 59.916 39.464 60.002C39.5041 61.2415 40.0247 62.4169 40.9157 63.2795C41.8068 64.1421 42.9983 64.6245 44.2385 64.6245C45.4787 64.6245 46.6703 64.1421 47.5613 63.2795C48.4523 62.4169 48.9729 61.2415 49.013 60.002V30.29C49.017 30.211 49.013 30.123 49.013 30.038ZM63.343 30.038C63.3029 28.7979 62.7821 27.6221 61.8907 26.7591C60.9993 25.8961 59.8072 25.4135 58.5665 25.4135C57.3258 25.4135 56.1337 25.8961 55.2423 26.7591C54.351 27.6221 53.8301 28.7979 53.79 30.038C53.79 30.123 53.784 30.211 53.79 30.286V59.755C53.784 59.833 53.79 59.919 53.79 60.002C53.8301 61.242 54.351 62.4179 55.2423 63.2809C56.1337 64.1439 57.3258 64.6264 58.5665 64.6264C59.8072 64.6264 60.9993 64.1439 61.8907 63.2809C62.7821 62.4179 63.3029 61.242 63.343 60.002V30.038Z" fill="white"/>
<path d="M164.92 13.44C162.2 13.44 160.36 14.84 159.36 17.04C158.44 14.6 156.68 13.44 154.36 13.44C151.96 13.44 150.28 14.6 149.24 16.48L148.84 13.96H146.48V35H149.6V22.12C149.6 18.52 151.24 16.44 153.68 16.44C155.72 16.44 156.96 17.92 156.96 21.88V35H160.08V22.12C160.08 18.52 161.76 16.44 164.2 16.44C166.24 16.44 167.4 17.92 167.4 21.88V35H170.52V21.72C170.52 16.12 168.32 13.44 164.92 13.44ZM181.95 35.48C186.35 35.48 189.15 32.72 189.15 27.68V21.24C189.15 16.2 186.35 13.44 181.95 13.44C177.55 13.44 174.71 16.2 174.71 21.24V27.68C174.71 32.72 177.55 35.48 181.95 35.48ZM181.95 32.44C179.43 32.44 177.91 30.96 177.91 27.68V21.24C177.91 17.96 179.43 16.52 181.95 16.52C184.47 16.52 185.99 17.96 185.99 21.24V27.68C185.99 30.96 184.47 32.44 181.95 32.44ZM201.748 13.44C199.268 13.44 197.468 14.6 196.388 16.44L195.988 13.96H193.628V35H196.748V22.12C196.748 18.52 198.428 16.44 200.948 16.44C203.348 16.44 204.388 18.12 204.388 21.92V35H207.508V21.68C207.508 15.92 205.268 13.44 201.748 13.44ZM215.901 13.96L210.021 35H213.341L216.141 24.16C216.621 22.16 217.261 19.2 217.541 17.84H217.741C218.021 19.2 218.661 22.16 219.141 24.16L221.941 35H225.261L219.381 13.96H215.901ZM234.684 35.48C239.084 35.48 241.884 32.72 241.884 27.68V21.24C241.884 16.2 239.084 13.44 234.684 13.44C230.284 13.44 227.444 16.2 227.444 21.24V27.68C227.444 32.72 230.284 35.48 234.684 35.48ZM234.684 32.44C232.164 32.44 230.644 30.96 230.644 27.68V21.24C230.644 17.96 232.164 16.52 234.684 16.52C237.204 16.52 238.724 17.96 238.724 21.24V27.68C238.724 30.96 237.204 32.44 234.684 32.44ZM160.24 56.96L156.48 65.52C155.96 66.8 155.44 68.04 155 69.36H154.88C154.44 68.04 153.92 66.8 153.4 65.52L149.68 56.96H146.48V78H149.44V68.08C149.44 65.96 149.28 64.12 149.24 62.4L149.4 62.32C149.96 64.08 150.56 65.84 151.16 67.4L153.44 72.64H156.44L158.72 67.4C159.36 65.84 159.92 64.08 160.52 62.32L160.68 62.4C160.6 64.12 160.44 65.96 160.44 68.08V78H163.4V56.96H160.24ZM175.075 78.48C179.475 78.48 182.275 75.72 182.275 70.68V64.24C182.275 59.2 179.475 56.44 175.075 56.44C170.675 56.44 167.835 59.2 167.835 64.24V70.68C167.835 75.72 170.675 78.48 175.075 78.48ZM175.075 75.44C172.555 75.44 171.035 73.96 171.035 70.68V64.24C171.035 60.96 172.555 59.52 175.075 59.52C177.595 59.52 179.115 60.96 179.115 64.24V70.68C179.115 73.96 177.595 75.44 175.075 75.44ZM193.833 78.44C198.193 78.44 200.993 75.64 200.993 70.64V65.88C200.993 61 198.353 58.24 194.553 58.24C192.513 58.24 190.953 59 189.873 60.4V59.08C189.873 55.08 192.593 54.24 194.793 53.64C196.873 53.08 198.713 52.24 199.793 50.08L197.393 48.24C196.433 49.88 195.473 50.2 193.593 50.76C190.713 51.64 186.753 53.56 186.753 59.2V70.64C186.753 75.64 189.513 78.44 193.833 78.44ZM193.833 75.36C191.393 75.36 189.953 73.88 189.953 70.64V66C189.953 62.48 191.873 61.28 193.953 61.28C196.313 61.28 197.793 62.76 197.793 66.2V70.64C197.793 73.88 196.313 75.36 193.833 75.36ZM211.865 56.44C207.785 56.44 205.105 58.88 204.945 62.72H208.105C208.265 60.6 209.745 59.48 211.785 59.48C214.185 59.48 215.345 61 215.345 63.76V65.64H211.745C207.105 65.64 204.305 67.84 204.305 72C204.305 76.04 207.025 78.52 210.865 78.52C213.145 78.52 214.625 77.48 215.625 75.96L215.905 78H218.505V63.72C218.505 59.16 216.105 56.44 211.865 56.44ZM215.345 71.6C215.345 74.08 213.865 75.6 211.465 75.6C209.065 75.6 207.505 74.36 207.505 72.04C207.505 69.64 208.985 68.36 211.705 68.36H215.345V71.6ZM230.192 53.68C232.952 53.68 234.712 51.96 234.832 48.96H232.392C232.312 50.52 231.592 51.32 230.152 51.32C228.752 51.32 228.032 50.52 227.912 48.96H225.512C225.632 51.96 227.392 53.68 230.192 53.68ZM234.032 56.96V69.84C234.032 73.44 232.352 75.52 229.832 75.52C227.432 75.52 226.392 73.84 226.392 70V56.96H223.272V70.28C223.272 76.04 225.512 78.52 229.072 78.52C231.512 78.52 233.312 77.36 234.392 75.52L234.792 78H237.152V56.96H234.032ZM245.745 56.96L239.865 78H243.185L245.985 67.16C246.465 65.16 247.105 62.2 247.385 60.84H247.585C247.865 62.2 248.505 65.16 248.985 67.16L251.785 78H255.105L249.225 56.96H245.745Z" fill="black"/>
</svg>
