<svg xmlns="http://www.w3.org/2000/svg" xmlns:xlink="http://www.w3.org/1999/xlink" version="1.1" x="0px" y="0px" enable-background="new 0 0 150 150" xml:space="preserve" viewBox="22.65 10.99 90.69 87.85">
<g>
	<g>
		<path fill="none" d="M430.213,8.796H27.805V143.5h402.408V8.796L430.213,8.796z"/>
	</g> 
		<g>
			<g>
				<path fill="#C62828" d="M67.957,98.85c-25.052,0-45.312-19.668-45.312-43.94c0-24.276,20.26-43.915,45.312-43.915      c25.052,0,45.383,19.644,45.383,43.915C113.34,79.182,93.009,98.85,67.957,98.85z"/>
			</g>
			<g>
				<g>
					<path fill="#FFFFFF" d="M93.143,25.787c-3.396,0-6.146,2.658-6.146,5.954c0,3.291,2.75,5.96,6.146,5.96       c3.397,0,6.153-2.669,6.153-5.96C99.295,28.444,96.54,25.787,93.143,25.787z M93.143,34.104c-1.345,0-2.432-1.055-2.435-2.364       c0.003-1.303,1.09-2.364,2.435-2.364c1.342,0,2.438,1.061,2.442,2.364C95.58,33.049,94.485,34.104,93.143,34.104z        M57.293,41.033c0-2.558-2.133-4.628-4.772-4.628c-2.634,0-4.771,2.071-4.771,4.628c0,0.085-0.01,0.173,0,0.252v29.454       c-0.01,0.086,0,0.175,0,0.258c0,2.551,2.138,4.626,4.771,4.626c2.639,0,4.772-2.075,4.772-4.626c0-0.083,0.01-0.172,0-0.258       V41.285C57.303,41.206,57.293,41.118,57.293,41.033z M71.658,41.033c0-2.558-2.137-4.628-4.776-4.628       c-2.639,0-4.773,2.071-4.773,4.628c0,0.085-0.009,0.173,0,0.252v29.454c-0.009,0.086,0,0.175,0,0.258       c0,2.551,2.133,4.626,4.773,4.626c2.64,0,4.776-2.075,4.776-4.626c0-0.083,0.004-0.172,0-0.258V41.285       C71.662,41.206,71.658,41.118,71.658,41.033z M85.988,41.033c0-2.558-2.137-4.628-4.777-4.628       c-2.639,0-4.776,2.071-4.776,4.628c0,0.085-0.006,0.173,0,0.248V70.75c-0.006,0.078,0,0.164,0,0.247       c0,2.551,2.137,4.626,4.776,4.626c2.64,0,4.777-2.075,4.777-4.626c0-0.083,0-0.172,0-0.258V41.294       C85.988,41.206,85.988,41.118,85.988,41.033z"/>
				</g>
			</g>
		</g> 
</g>
</svg>