<svg width="32" height="32" viewBox="0 0 32 32" fill="none" xmlns="http://www.w3.org/2000/svg">
<ellipse cx="15.8974" cy="15.5" rx="15.8974" ry="15.5" fill="#DB2227"/>
<path d="M26 17.55V18.95C26 18.996 25.9909 19.0415 25.9734 19.0839C25.9558 19.1264 25.93 19.165 25.8975 19.1975C25.865 19.23 25.8264 19.2558 25.7839 19.2734C25.7415 19.291 25.6959 19.3 25.65 19.3H20.75C20.704 19.3 20.6585 19.291 20.616 19.2734C20.5736 19.2558 20.535 19.23 20.5025 19.1975C20.47 19.165 20.4442 19.1264 20.4266 19.0839C20.409 19.0415 20.4 18.996 20.4 18.95V17.55C20.4 17.504 20.409 17.4585 20.4266 17.416C20.4442 17.3736 20.47 17.335 20.5025 17.3025C20.535 17.27 20.5736 17.2442 20.616 17.2266C20.6585 17.209 20.704 17.2 20.75 17.2H25.65C25.6959 17.2 25.7415 17.209 25.7839 17.2266C25.8264 17.2442 25.865 17.27 25.8975 17.3025C25.93 17.335 25.9558 17.3736 25.9734 17.416C25.9909 17.4585 26 17.504 26 17.55ZM18.3 6H11.3C11.254 5.99999 11.2085 6.00903 11.166 6.02662C11.1236 6.0442 11.085 6.06998 11.0525 6.10249C11.02 6.13499 10.9942 6.17358 10.9766 6.21605C10.959 6.25852 10.95 6.30403 10.95 6.35V7.75C10.95 7.79596 10.959 7.84148 10.9766 7.88395C10.9942 7.92642 11.02 7.96501 11.0525 7.99751C11.085 8.03002 11.1236 8.0558 11.166 8.07338C11.2085 8.09097 11.254 8.10001 11.3 8.1H18.3C18.346 8.10001 18.3915 8.09097 18.4339 8.07338C18.4764 8.0558 18.515 8.03002 18.5475 7.99751C18.58 7.96501 18.6058 7.92642 18.6234 7.88395C18.641 7.84148 18.65 7.79596 18.65 7.75V6.35C18.65 6.30403 18.641 6.25852 18.6234 6.21605C18.6058 6.17358 18.58 6.13499 18.5475 6.10249C18.515 6.06998 18.4764 6.0442 18.4339 6.02662C18.3915 6.00903 18.346 5.99999 18.3 6ZM13.75 8.8V9.5H15.85V8.8H13.75ZM18.3 10.2H11.3C11.254 10.2 11.2085 10.209 11.166 10.2266C11.1236 10.2442 11.085 10.27 11.0525 10.3025C11.02 10.335 10.9942 10.3736 10.9766 10.416C10.959 10.4585 10.95 10.504 10.95 10.55V15.45C10.95 15.496 10.959 15.5415 10.9766 15.5839C10.9942 15.6264 11.02 15.665 11.0525 15.6975C11.085 15.73 11.1236 15.7558 11.166 15.7734C11.2085 15.791 11.254 15.8 11.3 15.8H18.3C18.346 15.8 18.3915 15.791 18.4339 15.7734C18.4764 15.7558 18.515 15.73 18.5475 15.6975C18.58 15.665 18.6058 15.6264 18.6234 15.5839C18.641 15.5415 18.65 15.496 18.65 15.45V10.55C18.65 10.504 18.641 10.4585 18.6234 10.416C18.6058 10.3736 18.58 10.335 18.5475 10.3025C18.515 10.27 18.4764 10.2442 18.4339 10.2266C18.3915 10.209 18.346 10.2 18.3 10.2ZM7.8 15.1H10.25V10.9H7.8V15.1ZM21.1 15.8V16.5H25.3V15.45C25.2988 14.2436 24.8191 13.087 23.966 12.2339C23.113 11.3809 21.9564 10.9011 20.75 10.9H19.35V15.1H20.4C20.5855 15.1005 20.7632 15.1745 20.8944 15.3056C21.0255 15.4368 21.0994 15.6145 21.1 15.8ZM22.911 20.1524C22.6899 20.4765 20.75 23.3516 20.75 24.5722C20.7559 25.2181 21.0166 25.8356 21.4754 26.2902C21.9342 26.7449 22.554 27 23.2 27C23.8459 27 24.4657 26.7449 24.9246 26.2902C25.3834 25.8356 25.6441 25.2181 25.65 24.5722C25.65 23.3516 23.7101 20.4765 23.489 20.1524C23.4551 20.108 23.4113 20.0719 23.3612 20.0471C23.3111 20.0223 23.2559 20.0094 23.2 20.0094C23.1441 20.0094 23.0889 20.0223 23.0388 20.0471C22.9886 20.0719 22.9449 20.108 22.911 20.1524ZM6.75 8.8H5.35C5.30403 8.79999 5.25852 8.80903 5.21605 8.82662C5.17358 8.8442 5.13499 8.86998 5.10249 8.90248C5.06998 8.93499 5.0442 8.97357 5.02662 9.01604C5.00903 9.05851 4.99999 9.10403 5 9.15V16.85C4.99999 16.896 5.00903 16.9415 5.02662 16.9839C5.0442 17.0264 5.06998 17.065 5.10249 17.0975C5.13499 17.13 5.17358 17.1558 5.21605 17.1734C5.25852 17.191 5.30403 17.2 5.35 17.2H6.75C6.79596 17.2 6.84148 17.191 6.88395 17.1734C6.92642 17.1558 6.96501 17.13 6.99751 17.0975C7.03002 17.065 7.0558 17.0264 7.07338 16.9839C7.09097 16.9415 7.10001 16.896 7.1 16.85V9.15C7.10001 9.10403 7.09097 9.05851 7.07338 9.01604C7.0558 8.97357 7.03002 8.93499 6.99751 8.90248C6.96501 8.86998 6.92642 8.8442 6.88395 8.82662C6.84148 8.80903 6.79596 8.79999 6.75 8.8Z" fill="white"/>
</svg>
